<?xml version="1.0" encoding="iso-8859-1"?>
<!-- Uploaded to: SVG Repo, www.svgrepo.com, Generator: SVG Repo Mixer Tools -->
<svg version="1.1" id="Layer_1" xmlns="http://www.w3.org/2000/svg" xmlns:xlink="http://www.w3.org/1999/xlink" 
	 viewBox="0 0 511.999 511.999" xml:space="preserve">
<g>
	<rect x="208.098" y="438.98" style="fill:#F2BF7E;" width="95.812" height="23.952"/>
	<polygon style="fill:#F2BF7E;" points="463.586,279.294 287.937,279.294 255.999,311.231 224.062,279.294 48.412,279.294 
		48.412,7.835 463.586,7.835 	"/>
</g>
<circle style="fill:#FFFFFF;" cx="192.126" cy="143.562" r="63.878"/>
<path style="fill:#E2804F;" d="M191.958,207.437v-63.873l43.913-43.913C235.87,99.652,303.732,180.017,191.958,207.437z"/>
<polygon style="fill:#D4E4AC;" points="463.558,144.294 463.558,279.05 287.937,279.05 255.999,310.986 224.062,279.05 
	48.845,279.05 48.845,144.294 9.149,144.294 9.149,390.824 503.254,390.824 503.254,144.294 "/>
<polyline style="fill:#E2804F;" points="479.558,391.072 503.507,391.072 503.507,438.976 8.492,438.976 8.492,391.072 
	32.441,391.072 "/>
<polygon points="511.341,446.812 0.658,446.812 0.658,135.73 32.441,135.73 32.441,151.4 16.327,151.4 16.327,431.142 
	495.672,431.142 495.672,151.4 479.558,151.4 479.558,135.73 511.341,135.73 "/>
<rect x="24.819" y="384.555" width="462.766" height="15.669"/>
<g>
	<rect x="40.488" y="407.537" style="fill:#FFFFFF;" width="15.669" height="15.669"/>
	<rect x="64.514" y="407.537" style="fill:#FFFFFF;" width="15.669" height="15.669"/>
	<rect x="88.541" y="407.537" style="fill:#FFFFFF;" width="15.669" height="15.669"/>
</g>
<rect x="207.628" y="496.33" width="97.15" height="15.669"/>
<polygon points="304.776,456.635 207.627,456.635 207.627,472.304 246.278,472.304 246.278,486.929 261.947,486.929 
	261.947,472.304 304.776,472.304 "/>
<path d="M255.999,322.31l-35.184-35.182H40.579V0H471.42v287.129H291.183L255.999,322.31z M56.248,271.46h171.058L256,300.151
	l28.694-28.691h171.058V15.669H56.248V271.46z"/>
<rect x="80.184" y="33.564" style="fill:#E2804F;" width="64.766" height="15.669"/>
<path d="M267.225,200.704l-16.253-16.233c8.096-11.611,12.862-25.709,12.862-40.905c0-39.54-32.168-71.708-71.708-71.708
	c-8.756,0-17.148,1.584-24.912,4.47l-19.743-19.781H80.183v15.669h60.789l11.572,11.595c-19.344,12.856-32.126,34.837-32.126,59.754
	c0,39.54,32.168,71.708,71.708,71.708c18.699,0,35.743-7.202,48.521-18.967l20.092,20.068h67.016v-15.669h-60.531V200.704z
	 M136.088,143.565c0-20.61,11.192-38.646,27.811-48.379l18.607,18.642l11.091-11.07l-13.818-13.843
	c3.976-0.898,8.105-1.388,12.348-1.388c12.4,0,23.866,4.055,33.158,10.9l-41.684,41.906v58.623
	C156.733,194.836,136.088,171.566,136.088,143.565z M199.27,199.131v-52.333l37.218-37.415c7.312,9.467,11.678,21.322,11.678,34.182
	c0,10.868-3.12,21.016-8.496,29.616l-10.118-10.106l-11.073,11.087l11.079,11.066C221.299,192.653,210.829,197.653,199.27,199.131z"
	/>
<rect x="264.037" y="224.729" style="fill:#E2804F;" width="63.722" height="15.669"/>
<rect x="304.777" y="49.233" style="fill:#FFFFFF;" width="15.669" height="15.669"/>
<rect x="336.116" y="49.233" width="96.105" height="15.669"/>
<rect x="304.777" y="73.259" style="fill:#FFFFFF;" width="15.669" height="15.669"/>
<rect x="336.116" y="73.259" width="96.105" height="15.669"/>
<rect x="304.777" y="96.241" style="fill:#FFFFFF;" width="15.669" height="15.669"/>
<rect x="336.116" y="96.241" width="96.105" height="15.669"/>
<rect x="80.184" y="240.398" style="fill:#FFFFFF;" width="64.766" height="15.669"/>
<rect x="367.455" y="136.981" width="64.766" height="15.669"/>
<rect x="391.481" y="169.364" style="fill:#FFFFFF;" width="40.74" height="15.669"/>
<rect x="407.15" y="200.703" width="25.071" height="15.669"/>
<rect x="415.507" y="232.041" style="fill:#FFFFFF;" width="16.714" height="15.669"/>
</svg>