<?xml version="1.0" standalone="no"?>
<!DOCTYPE svg PUBLIC "-//W3C//DTD SVG 20010904//EN"
 "http://www.w3.org/TR/2001/REC-SVG-20010904/DTD/svg10.dtd">
<svg version="1.0" xmlns="http://www.w3.org/2000/svg"
 width="200.000000pt" height="200.000000pt" viewBox="0 0 200.000000 200.000000"
 preserveAspectRatio="xMidYMid meet">

<g transform="translate(0.000000,200.000000) scale(0.100000,-0.100000)"
fill="#000000" stroke="none">
<path d="M1095 1766 c17 -14 36 -23 43 -21 8 3 10 0 6 -6 -3 -6 16 -34 44 -63
28 -28 63 -64 77 -81 20 -24 25 -26 21 -10 -2 11 -7 46 -11 78 -8 66 -26 91
-66 85 -15 -3 -26 -1 -23 3 2 4 -15 12 -38 17 -24 5 -52 13 -63 17 -14 5 -11
-1 10 -19z m90 -54 c-3 -3 -11 0 -18 7 -9 10 -8 11 6 5 10 -3 15 -9 12 -12z"/>
<path d="M1895 1731 c-44 -26 -177 -105 -295 -175 -118 -71 -217 -129 -219
-131 -2 -2 13 -43 34 -90 56 -131 95 -298 104 -445 7 -124 7 -125 22 -90 48
107 351 771 410 898 21 45 35 82 31 82 -4 0 -43 -22 -87 -49z"/>
<path d="M50 1260 c0 -57 -1 -60 -25 -60 -22 0 -25 -4 -25 -40 0 -36 3 -40 25
-40 l25 0 0 -146 c0 -207 16 -234 140 -234 l60 0 0 40 0 40 -45 0 c-40 0 -47
3 -56 26 -5 15 -8 81 -7 148 l3 121 53 3 52 3 0 40 0 39 -55 0 -55 0 0 60 0
60 -45 0 -45 0 0 -60z"/>
<path d="M434 1197 c-86 -32 -136 -113 -137 -221 0 -114 56 -209 141 -237 51
-17 128 -5 168 26 l34 26 0 -25 c0 -24 3 -26 50 -26 l50 0 0 230 0 230 -50 0
c-47 0 -50 -1 -50 -27 0 -24 -1 -25 -18 -10 -47 43 -127 57 -188 34z m143 -97
c49 -29 66 -71 61 -148 -4 -59 -7 -67 -41 -98 -108 -100 -249 34 -192 182 29
77 105 105 172 64z"/>
<path d="M1000 1194 c-19 -8 -38 -20 -42 -27 -8 -12 -9 -10 -12 16 -1 7 -20
13 -48 15 l-48 3 0 -230 0 -231 50 0 50 0 0 161 0 161 30 30 c28 27 36 30 77
25 82 -9 87 -22 91 -212 l3 -165 50 0 49 0 0 148 c0 213 -20 268 -112 307 -46
19 -93 19 -138 -1z"/>
</g>
</svg>
