<?xml version="1.0" encoding="UTF-8"?>
<svg version="1.1" xmlns="http://www.w3.org/2000/svg" width="1155" height="1188">
<path d="M0 0 C-1.42062238 4.64538625 -3.32462585 8.9000672 -5.52734375 13.21484375 C-5.87575821 13.9064711 -6.22417267 14.59809845 -6.58314514 15.3106842 C-7.69743851 17.52157933 -8.81700432 19.72974265 -9.9375 21.9375 C-15.32099477 32.56445291 -20.57578141 43.24120184 -25.6963501 53.99757385 C-30.58311185 64.25164053 -35.58628278 74.44749236 -40.5977478 84.64105225 C-43.3493257 90.2384398 -46.09670995 95.8378843 -48.84375 101.4375 C-49.38283493 102.53633514 -49.92191986 103.63517029 -50.4773407 104.76730347 C-54.73881837 113.4579531 -58.97375216 122.16112497 -63.1875 130.875 C-69.36198849 143.64161858 -75.5801649 156.38652204 -81.8125 169.125 C-88.78150662 183.36981731 -95.74424015 197.61761294 -102.6875 211.875 C-103.07411804 212.66886108 -103.46073608 213.46272217 -103.85906982 214.28063965 C-105.79883522 218.26381352 -107.73835898 222.24710498 -109.67773438 226.23046875 C-113.59648571 234.27921596 -117.51694318 242.32713213 -121.4375 250.375 C-122.02330338 251.57754425 -122.02330338 251.57754425 -122.62094116 252.80438232 C-129.16252894 266.23273015 -135.7102393 279.65808536 -142.25997925 293.0824585 C-148.34422338 305.55291045 -154.42401138 318.02552374 -160.5 330.5 C-166.97509318 343.79365526 -173.45416829 357.08536065 -179.9375 370.375 C-180.35144012 371.22350525 -180.76538025 372.0720105 -181.19186401 372.94622803 C-184.54785642 379.82532297 -187.90411089 386.70429005 -191.26037598 393.58325195 C-194.1945398 399.59710822 -197.12859987 405.61101509 -200.0625 411.625 C-200.47652069 412.47366638 -200.89054138 413.32233276 -201.31710815 414.19671631 C-207.3820804 426.62919296 -213.44254883 439.06385731 -219.5 451.5 C-225.9751247 464.79363993 -232.45416828 478.08536062 -238.9375 491.375 C-239.55841019 492.64775787 -239.55841019 492.64775787 -240.19186401 493.94622803 C-243.54785642 500.82532297 -246.90411089 507.70429005 -250.26037598 514.58325195 C-253.1945398 520.59710822 -256.12859987 526.61101509 -259.0625 532.625 C-259.47652069 533.47366638 -259.89054138 534.32233276 -260.31710815 535.19671631 C-266.3820804 547.62919296 -272.44254883 560.06385731 -278.5 572.5 C-284.9751247 585.79363993 -291.45416828 599.08536062 -297.9375 612.375 C-298.55841019 613.64775787 -298.55841019 613.64775787 -299.19186401 614.94622803 C-302.54785642 621.82532297 -305.90411089 628.70429005 -309.26037598 635.58325195 C-312.1945398 641.59710822 -315.12859987 647.61101509 -318.0625 653.625 C-318.47652069 654.47366638 -318.89054138 655.32233276 -319.31710815 656.19671631 C-325.3820804 668.62919296 -331.44254883 681.06385731 -337.5 693.5 C-343.9751247 706.79363993 -350.45416828 720.08536062 -356.9375 733.375 C-357.55841019 734.64775787 -357.55841019 734.64775787 -358.19186401 735.94622803 C-361.54785642 742.82532297 -364.90411089 749.70429005 -368.26037598 756.58325195 C-371.1945398 762.59710822 -374.12859987 768.61101509 -377.0625 774.625 C-377.47652069 775.47366638 -377.89054138 776.32233276 -378.31710815 777.19671631 C-384.3820804 789.62919296 -390.44254883 802.06385731 -396.5 814.5 C-402.9751247 827.79363993 -409.45416828 841.08536062 -415.9375 854.375 C-416.55841019 855.64775787 -416.55841019 855.64775787 -417.19186401 856.94622803 C-420.54785642 863.82532297 -423.90411089 870.70429005 -427.26037598 877.58325195 C-430.1945398 883.59710822 -433.12859987 889.61101509 -436.0625 895.625 C-436.47652069 896.47366638 -436.89054138 897.32233276 -437.31710815 898.19671631 C-443.3820804 910.62919296 -449.44254883 923.06385731 -455.5 935.5 C-461.9751247 948.79363993 -468.45416828 962.08536062 -474.9375 975.375 C-475.55841019 976.64775787 -475.55841019 976.64775787 -476.19186401 977.94622803 C-479.54785642 984.82532297 -482.90411089 991.70429005 -486.26037598 998.58325195 C-489.1945398 1004.59710822 -492.12859987 1010.61101509 -495.0625 1016.625 C-495.47652069 1017.47366638 -495.89054138 1018.32233276 -496.31710815 1019.19671631 C-502.3820804 1031.62919296 -508.44254883 1044.06385731 -514.5 1056.5 C-521.80239437 1071.49205126 -529.10988991 1086.48160615 -536.42285156 1101.46850586 C-537.25456278 1103.17301165 -538.08626849 1104.87752012 -538.91796875 1106.58203125 C-539.33112335 1107.428759 -539.74427795 1108.27548676 -540.16995239 1109.14787292 C-542.80222413 1114.54314783 -545.43254911 1119.93936772 -548.0615387 1125.33624268 C-549.85866262 1129.02532461 -551.65638165 1132.71411641 -553.45413208 1136.40289307 C-554.30100345 1138.1409907 -555.14759349 1139.87922544 -555.99386597 1141.61761475 C-561.26473241 1152.44459734 -566.59137269 1163.24113187 -572 1174 C-572.33 1174 -572.66 1174 -573 1174 C-573.11600264 1167.26371435 -572.97236425 1160.56648111 -572.57128906 1153.84155273 C-572.52755787 1153.10692653 -572.48382668 1152.37230032 -572.43877029 1151.61541271 C-572.34566902 1150.05814283 -572.25246672 1148.50087899 -572.15917206 1146.94362068 C-570.94122508 1126.17720397 -570.68787768 1105.45508204 -570.73925781 1084.6574707 C-570.75064277 1079.99868576 -570.74385899 1075.34012977 -570.73237896 1070.68135262 C-570.66398835 1037.89061892 -571.8141769 1005.1729895 -574.6875 972.5 C-574.76892242 971.55939728 -574.85034485 970.61879456 -574.93423462 969.64968872 C-584.31410356 862.51291579 -607.13945263 757.69332708 -732.46337891 447.64111328 C-734.65639 443.87181013 -736.81251708 440.08176444 -738.97119141 436.29272461 C-740.89427471 432.91773997 -742.82416598 429.54668244 -744.75439453 426.17578125 C-746.50479031 423.11824946 -748.25248507 420.05917908 -750 417 C-737.5464814 409.91421861 -725.05445206 402.90493825 -712.5 396 C-703.80428195 391.21719153 -695.12969184 386.40135949 -686.5 381.5 C-677.95067336 376.64592591 -669.36176033 371.86707683 -660.75 367.125 C-660.1400116 366.7890683 -659.53002319 366.4531366 -658.90155029 366.10702515 C-656.43422857 364.74828405 -653.96688217 363.38958778 -651.4994812 362.0309906 C-636.8314242 353.95210267 -622.1905207 345.82496957 -607.625 337.5625 C-599.03306969 332.68943125 -590.40223814 327.88984341 -581.75 323.125 C-580.83528931 322.6212384 -580.83528931 322.6212384 -579.90209961 322.1072998 C-577.43458701 320.74845772 -574.96704167 319.38967509 -572.49945068 318.03097534 C-557.83140874 309.9520834 -543.19051095 301.82496404 -528.625 293.5625 C-520.03306969 288.68943125 -511.40223814 283.88984341 -502.75 279.125 C-501.83528931 278.6212384 -501.83528931 278.6212384 -500.90209961 278.1072998 C-498.43458701 276.74845772 -495.96704167 275.38967509 -493.49945068 274.03097534 C-478.83140874 265.9520834 -464.19051095 257.82496404 -449.625 249.5625 C-441.03306969 244.68943125 -432.40223814 239.88984341 -423.75 235.125 C-422.83528931 234.6212384 -422.83528931 234.6212384 -421.90209961 234.1072998 C-419.43458701 232.74845772 -416.96704167 231.38967509 -414.49945068 230.03097534 C-399.83140874 221.9520834 -385.19051095 213.82496404 -370.625 205.5625 C-362.03306969 200.68943125 -353.40223814 195.88984341 -344.75 191.125 C-343.83528931 190.6212384 -343.83528931 190.6212384 -342.90209961 190.1072998 C-340.43458701 188.74845772 -337.96704167 187.38967509 -335.49945068 186.03097534 C-320.83140874 177.9520834 -306.19051095 169.82496404 -291.625 161.5625 C-283.03306969 156.68943125 -274.40223814 151.88984341 -265.75 147.125 C-264.83528931 146.6212384 -264.83528931 146.6212384 -263.90209961 146.1072998 C-261.43458701 144.74845772 -258.96704167 143.38967509 -256.49945068 142.03097534 C-241.83140874 133.9520834 -227.19051095 125.82496404 -212.625 117.5625 C-204.03306969 112.68943125 -195.40223814 107.88984341 -186.75 103.125 C-186.14019287 102.78915894 -185.53038574 102.45331787 -184.90209961 102.1072998 C-182.43458701 100.74845772 -179.96704167 99.38967509 -177.49945068 98.03097534 C-162.83140874 89.9520834 -148.19051095 81.82496404 -133.625 73.5625 C-125.03306969 68.68943125 -116.40223814 63.88984341 -107.75 59.125 C-107.14019287 58.78915894 -106.53038574 58.45331787 -105.90209961 58.1072998 C-103.43458701 56.74845772 -100.96704167 55.38967509 -98.49945068 54.03097534 C-82.90502266 45.44184671 -67.349778 36.78473217 -51.86645508 27.99682617 C-42.68708132 22.79865657 -33.44679053 17.71213705 -24.19580078 12.64282227 C-17.49909284 8.9645535 -10.88204111 5.20064362 -4.3347168 1.26318359 C-2 0 -2 0 0 0 Z " fill="#324E9A" transform="translate(1155,14)"/>
<path d="M0 0 C1.22262794 0.13035141 1.22262794 0.13035141 2.46995544 0.26333618 C84.961172 9.04146198 167.48056391 16.09380521 250.375 19.6875 C251.07958218 19.71831539 251.78416435 19.74913078 252.5100975 19.78087997 C290.121436 21.42388747 327.72820009 22.21032528 365.375 22.1875 C366.26010128 22.18738041 367.14520256 22.18726082 368.05712509 22.1871376 C438.7934313 22.17513732 509.47785738 19.32735861 579.609375 9.66259766 C587.39385902 8.59044155 595.16125905 7.5971869 603 7 C600.14010529 10.10754274 597.39462327 12.07661818 593.66015625 14.03125 C592.60852295 14.58796387 591.55688965 15.14467773 590.47338867 15.71826172 C589.34779541 16.30623535 588.22220215 16.89420898 587.0625 17.5 C584.68253826 18.75859992 582.30589057 20.02338323 579.9296875 21.2890625 C579.03762856 21.76329147 579.03762856 21.76329147 578.12754822 22.24710083 C572.92139877 25.02269234 567.79414483 27.9213804 562.6875 30.875 C554.42888685 35.64128477 546.1050394 40.28074443 537.75 44.875 C528.60603821 49.90420134 519.47552636 54.95488401 510.375 60.0625 C501.76186668 64.89656956 493.13660556 69.70798539 484.5 74.5 C475.82297114 79.31498792 467.15546969 84.1463632 458.5 89 C448.70931572 94.49021916 438.90096828 99.94797527 429.0859375 105.39453125 C421.54778656 109.5795047 414.02024821 113.78294942 406.5 118 C396.70931572 123.49021916 386.90096828 128.94797527 377.0859375 134.39453125 C369.54778656 138.5795047 362.02024821 142.78294942 354.5 147 C344.70931572 152.49021916 334.90096828 157.94797527 325.0859375 163.39453125 C317.54778656 167.5795047 310.02024821 171.78294942 302.5 176 C292.70931572 181.49021916 282.90096828 186.94797527 273.0859375 192.39453125 C265.54778656 196.5795047 258.02024821 200.78294942 250.5 205 C240.70931572 210.49021916 230.90096828 215.94797527 221.0859375 221.39453125 C213.54778656 225.5795047 206.02024821 229.78294942 198.5 234 C188.70931572 239.49021916 178.90096828 244.94797527 169.0859375 250.39453125 C161.54778656 254.5795047 154.02024821 258.78294942 146.5 263 C136.70931572 268.49021916 126.90096828 273.94797527 117.0859375 279.39453125 C109.54778527 283.57950542 102.02039841 287.78321581 94.5 292 C86.11350013 296.69925667 77.72661418 301.39783662 69.32910156 306.07739258 C67.62091497 307.02992615 65.91395094 307.98465114 64.20703125 308.93945312 C63.15 309.52791016 62.09296875 310.11636719 61.00390625 310.72265625 C59.62440796 311.49234741 59.62440796 311.49234741 58.21704102 312.27758789 C55.4309754 313.76925465 52.62688253 315.19787163 49.79893494 316.60765076 C48.89983871 317.05617118 48.00074247 317.5046916 47.0744009 317.96680355 C46.3898486 318.30775838 45.70529631 318.64871321 45 319 C39.69942408 283.45727475 34.51183628 247.89965506 29.42205405 212.32616377 C28.50096156 205.89076838 27.57825432 199.4556045 26.65571594 193.02041626 C25.11464156 182.26958565 23.57441832 171.5186334 22.03491211 160.76757812 C21.93854215 160.09458572 21.84217219 159.42159331 21.74288193 158.72820719 C21.64638435 158.05432303 21.54988677 157.38043887 21.45046502 156.68613398 C20.07165431 147.05731932 18.69259197 137.42854074 17.31323242 127.79980469 C17.21547257 127.11738187 17.11771272 126.43495905 17.01699045 125.73185675 C15.37978124 114.30330122 13.74203676 102.87482245 12.10402328 91.44638216 C11.01532648 83.85014217 9.92734189 76.25380063 8.83996713 68.65737128 C8.16392145 63.935341 7.48733657 59.21338808 6.81062508 54.49145317 C6.50042141 52.32611439 6.1904403 50.16074371 5.88071442 47.99533653 C5.45366056 45.00985364 5.02574248 42.02449563 4.59770203 39.03915405 C4.46462092 38.1070743 4.33153981 37.17499454 4.19442594 36.21466994 C3.53301267 31.60567498 2.84968456 27.00151177 2.12665749 22.40175247 C1.91623934 21.05019292 1.91623934 21.05019292 1.70157033 19.67132914 C1.43861499 17.99131274 1.17078838 16.31204733 0.89679307 14.6337961 C0.12564562 9.69347443 -0.11755202 5.00105145 0 0 Z " fill="#5BA7DA" transform="translate(335,72)"/>
<path d="M0 0 C7.38617655 1.44022397 14.39659261 3.71483907 21.51724243 6.10791016 C102.87294046 33.30382653 188.08839458 49.87441472 272.72583008 62.88208008 C273.60918533 63.01874588 274.49254059 63.15541168 275.40266418 63.29621887 C277.04834296 63.55024836 278.69447188 63.80138481 280.34111023 64.04911804 C285.77709962 64.88854981 285.77709962 64.88854981 288 66 C288.65342045 68.55583286 288.65342045 68.55583286 289.23219299 72.04676819 C289.34096311 72.6884533 289.44973323 73.3301384 289.56179941 73.99126852 C289.92833518 76.16867 290.28168185 78.34800688 290.63500977 80.52758789 C290.89617512 82.09890412 291.15799326 83.67011197 291.42041111 85.24121952 C292.14137363 89.57668498 292.84951745 93.91415105 293.55378962 98.25235605 C294.00043462 101.00267628 294.44910121 103.75266017 294.89823532 106.50257492 C297.23949385 120.85019495 299.54251105 135.20388549 301.83984375 149.55859375 C302.20327401 151.82794138 302.56672909 154.09728503 302.93020821 156.36662483 C304.6317367 166.99151479 306.33141511 177.61669856 308.02869505 188.24226803 C309.97841762 200.44781031 311.93485349 212.65225317 313.89668745 224.85585445 C315.42338851 234.3554409 316.94401343 243.85598756 318.46002299 253.35728604 C319.36199342 259.00926285 320.26659032 264.66078946 321.17765617 270.31130791 C322.02927129 275.59402417 322.87337959 280.87788437 323.71162033 286.1627388 C324.02046809 288.10144303 324.33206187 290.03971204 324.64656639 291.97750664 C325.07435295 294.61588765 325.49233151 297.25563982 325.90782166 299.89598083 C326.03504307 300.66588158 326.16226449 301.43578232 326.2933411 302.22901338 C326.83282913 305.72209399 327.27874502 308.63921392 326 312 C325.65855957 311.55309814 325.31711914 311.10619629 324.96533203 310.64575195 C322.14754471 306.95808489 319.3284896 303.27139477 316.5078125 299.5859375 C314.45714655 296.90650361 312.40928959 294.22502736 310.3671875 291.5390625 C304.23357634 283.50261488 297.89640129 275.64672039 291.49267578 267.82470703 C290.17813798 266.21776304 288.86801698 264.60720809 287.55859375 262.99609375 C282.26979538 256.49626463 276.88322475 250.08386265 271.45019531 243.70458984 C269.98196961 241.97880671 268.51826467 240.24925728 267.0546875 238.51953125 C261.59522377 232.08733257 256.03930739 225.77173071 250.27172852 219.61328125 C247.6634944 216.8252799 245.11373149 213.99918226 242.609375 211.1171875 C239.0167635 206.99184627 235.31070958 202.98392173 231.5625 199 C230.90507812 198.29939453 230.24765625 197.59878906 229.5703125 196.87695312 C225.7206304 192.78714233 221.81524124 188.77088412 217.80517578 184.83764648 C216.15400348 183.15677363 214.63770747 181.43055818 213.12109375 179.62890625 C208.14331286 173.90597223 202.74573441 168.59644717 197.37573242 163.24536133 C195.56639067 161.44137915 193.76245681 159.63211335 191.95898438 157.82226562 C186.65908311 152.51962686 181.35922448 147.29438105 175.64819336 142.42993164 C173.12889799 140.24425353 170.83025188 137.88640253 168.5 135.5 C164.88927427 131.84038869 161.20318826 128.34560813 157.29296875 125.0078125 C154.13162577 122.2396178 151.07088009 119.36779342 148 116.5 C143.07392659 111.90898979 138.11722843 107.37827848 133 103 C131.96605322 102.11208701 130.93220867 101.22405495 129.8984375 100.3359375 C127.50990921 98.28530022 125.11895605 96.23753232 122.7265625 94.19140625 C120.25825626 92.07969066 117.79496691 89.9623536 115.3359375 87.83984375 C109.54696086 82.84783192 103.73602429 77.91237702 97.734375 73.17578125 C95.60469296 71.48116282 93.49344798 69.77044328 91.390625 68.04296875 C83.50598391 61.57086643 75.51332999 55.30295997 67.3203125 49.2265625 C64.1862714 46.89829256 61.08322926 44.53349332 57.9921875 42.1484375 C47.92029213 34.38349691 37.72331444 26.93757292 27.17578125 19.83203125 C22.89489547 16.94648232 18.72977197 13.9196035 14.578125 10.8515625 C10.55076199 7.95918361 6.39640572 5.26628122 2.23828125 2.56640625 C1.49964844 2.04949219 0.76101562 1.53257812 0 1 C0 0.67 0 0.34 0 0 Z " fill="#587CB9" transform="translate(0,0)"/>
</svg>
